# AST/ASF file generated using VICON BodyLanguage
# -----------------------------------------------
:version 1.10
:name VICON
:units
  mass 1.0
  length 0.45
  angle deg
:documentation
   .ast/.asf automatically generated from VICON data using
   VICON BodyBuilder and BodyLanguage model FoxedUp or BRILLIANT.MOD
:root
   order TX TY TZ RX RY RZ
   axis XYZ
   position 0 0 0  
   orientation 0 0 0 
:bonedata
  begin
     id 1 
     name lhipjoint
     direction 0.535335 -0.74333 0.401095 
     length 2.04549 
     axis 0 0 0  XYZ
  end
  begin
     id 2 
     name lfemur
     direction 0.34202 -0.939693 0  
     length 6.95643  
     axis 0 0 20  XYZ
    dof rx ry rz
    limits (-160.0 20.0)
           (-70.0 70.0)
           (-60.0 70.0)
  end
  begin
     id 3 
     name ltibia
     direction 0.34192 -0.939729 0   
     length 5.55969   
     axis 0 0 20   XYZ
    dof rx
    limits (-10.0 170.0)
  end
  begin
     id 4 
     name lfoot
     direction 0.216943 -0.596046 0.773088   
     length 2.27918   
     axis -90 7.62852e-016 20   XYZ
    dof rx rz
    limits (-45.0 90.0)
           (-70.0 20.0)
  end
  begin
     id 5 
     name ltoes
     direction 1.53519e-011 -4.21748e-011 1   
     length 1.05562   
     axis -90 7.62852e-016 20   XYZ
    dof rx
    limits (-90.0 20.0)
  end
  begin
     id 6 
     name rhipjoint
     direction -0.576368 -0.719173 0.38806   
     length 2.1142  
     axis 0 0 0  XYZ 
  end
  begin
     id 7 
     name rfemur
     direction -0.34202 -0.939693 0   
     length 7.07928   
     axis 0 0 -20   XYZ
    dof rx ry rz
    limits (-160.0 20.0)
           (-70.0 70.0)
           (-70.0 60.0)
  end
  begin
     id 8 
     name rtibia
     direction -0.34202 -0.939693 0   
     length 5.79974   
     axis 0 0 -20   XYZ
    dof rx
    limits (-10.0 170.0)
 end
 begin
     id 9 
     name rfoot
     direction -0.189288 -0.520065 0.832888   
     length 2.42173  
     axis -90 -7.62852e-016 -20   XYZ
    dof rx rz
    limits (-45.0 90.0)
           (-20.0 70.0)
  end
  begin
     id 10 
     name rtoes
     direction -1.53574e-011 -4.21658e-011 1   
     length 1.14469   
     axis -90 -7.62852e-016 -20   XYZ
    dof rx
    limits (-90.0 20.0)
  end
  begin
     id 11 
     name lowerback
     direction -0.00135702 0.993803 0.111144   
     length 1.91308   
     axis 0 0 0   XYZ
    dof rx ry rz
    limits (-20.0 45.0)
           (-30.0 30.0)
           (-30.0 30.0)
  end
  begin
     id 12 
     name upperback
     direction -0.0056745 0.999813 0.0184631   
     length 1.9212   
     axis 0 0 0   XYZ
    dof rx ry rz
    limits (-20.0 45.0)
           (-30.0 30.0)
           (-30.0 30.0)
  end
  begin
     id 13 
     name thorax
     direction -0.00733434 0.999426 -0.0330788   
     length 1.94196   
     axis 0 0 0   XYZ
    dof rx ry rz
    limits (-20.0 45.0)
           (-30.0 30.0)
           (-30.0 30.0)
  end
  begin
     id 14 
     name lowerneck
     direction 0.0563074 0.996944 -0.0541571   
     length 2.34257   
     axis 0 0 0   XYZ
    dof rx ry rz
    limits (-20.0 45.0)
           (-30.0 30.0)
           (-30.0 30.0)
  end
  begin
     id 15 
     name upperneck
     direction -0.0544519 0.976166 -0.210085   
     length 2.32506   
     axis 0 0 0   XYZ
    dof rx ry rz
    limits (-20.0 45.0)
           (-30.0 30.0)
           (-30.0 30.0)
  end
  begin
     id 16
     name head
     direction -0.0226035 0.997615 -0.0652205  
     length 2.3648  
     axis 0 0 0   XYZ
    dof rx ry rz
    limits (-20.0 45.0)
           (-30.0 30.0)
           (-30.0 30.0)
  end
  begin
     id 17 
     name lclavicle
     direction 0.92109 0.381297 -0.0787716  
     length 4.0487  
     axis 0 0 0   XYZ
    dof ry rz
    limits (-20.0 10.0)
           (0.0 20.0)
  end
  begin
     id 18 
     name lhumerus
     direction 1 -4.48986e-011 3.56724e-027   
     length 4.94991   
     axis 180 -30 -90   XYZ
    dof rx ry rz
    limits (-60.0 90.0)
           (-90.0 90.0)
           (-90.0 90.0)
  end
  begin
     id 19
     name lradius
     direction 1 -4.48981e-011 8.62147e-027   
     length 2.7606   
     axis 180 -30 -90   XYZ
    dof rx
    limits (-10.0 170.0)
  end
  begin
     id 20
     name lwrist
     direction 1 -4.48989e-011 1.59799e-026   
     length 1.3803   
     axis -1.17785e-014 90 90   XYZ
    dof ry
    limits (-180.0 0.0)
 end
  begin
     id 21 
     name lhand
     direction 1 -4.48896e-011 3.19599e-026   
     length 0.843936   
     axis -2.03931e-014 90 90   XYZ
    dof rx rz
    limits (-90.0 90.0)
           (-45.0 45.0)
  end
  begin
     id 22 
     name lfingers
     direction 1 -4.48887e-011 6.39197e-026   
     length 0.680403   
     axis -4.07862e-014 90 90   XYZ
    dof rx
    limits (0.0 90.0)
  end
  begin
     id 23
     name lthumb
     direction 0.707107 -6.348e-011 0.707107   
     length 0.976926   
     axis -90 45 2.85299e-015   XYZ
    dof rx rz
    limits (-45.0 45.0)
           (-45.0 45.0)
  end
  begin
     id 24 
     name rclavicle
     direction -0.951104 0.307692 -0.026953   
     length 4.21801  
     axis 0 0 0   XYZ 
    dof ry rz
    limits (-10.0 20.0)
           (-20.0 0.0)
  end
  begin
     id 25 
     name rhumerus
     direction -1 -4.4896e-011 -1.8171e-018  
     length 4.32982   
     axis 180 30 90   XYZ
    dof rx ry rz
    limits (-90.0 60.0)
           (-90.0 90.0)
           (-90.0 90.0)
  end
  begin
     id 26 
     name rradius
     direction -1 -4.48959e-011 8.25165e-027   
     length 3.20057   
     axis 180 30 90   XYZ
    dof rx
    limits (-10.0 170.0)
  end
  begin
     id 27 
     name rwrist
     direction -1 -4.48997e-011 1.59799e-026   
     length 1.60029   
     axis -1.17785e-014 -90 -90   XYZ
    dof ry
    limits (-180.0 0.0)
  end
  begin
     id 28
     name rhand
     direction -1 -4.49023e-011 3.19599e-026   
     length 0.960433   
     axis -2.03931e-014 -90 -90   XYZ
    dof rx rz
    limits (-90.0 90.0)
           (-45.0 45.0)
  end
  begin
     id 29
     name rfingers
     direction -1 -4.48802e-011 6.39197e-026   
     length 0.774326   
     axis -4.07862e-014 -90 -90   XYZ
    dof rx
    limits (0.0 90.0)
  end
  begin
     id 30
     name rthumb
     direction -0.707107 -6.34876e-011 0.707107   
     length 1.11178   
     axis -90 -45 -2.85299e-015   XYZ
    dof rx rz
    limits (-45.0 45.0)
           (-45.0 45.0)
  end
:hierarchy
  begin
    root lhipjoint rhipjoint lowerback
    lhipjoint lfemur
    lfemur ltibia
    ltibia lfoot
    lfoot ltoes
    rhipjoint rfemur
    rfemur rtibia
    rtibia rfoot
    rfoot rtoes
    lowerback upperback
    upperback thorax
    thorax lowerneck lclavicle rclavicle
    lowerneck upperneck
    upperneck head
    lclavicle lhumerus
    lhumerus lradius
    lradius lwrist
    lwrist lhand lthumb
    lhand lfingers
    rclavicle rhumerus
    rhumerus rradius
    rradius rwrist
    rwrist rhand rthumb
    rhand rfingers
end

#!OML:ASF C:\KaitlinTest1\Natural Motions\Nikki\Session 2\Nikki.ASF
:FULLY-SPECIFIED
:DEGREES
1096
root -15.6686 16.3173 5.13827 -164.881 83.1785 -174.964
lowerback -11.7098 -2.58145 -1.29943
upperback -3.48675 -3.10112 -0.638834
thorax 2.94493 -1.48074 -0.364639
lowerneck 12.92 -9.09372 -12.6798
upperneck 10.9367 38.6423 7.92175
head 171.162 66.0478 -31.5706
rclavicle -3.66012e-014 -1.19271e-015
rhumerus -42.5857 -24.4173 -74.5488
rradius 17.6484
rwrist 24.1623
rhand -34.4205 1.09236
rfingers 7.12502
rthumb -7.58541 -28.7516
lclavicle -3.66012e-014 -1.19271e-015
lhumerus -33.7132 8.09555 86.4531
lradius 21.6272
lwrist -38.4161
lhand -36.8375 3.10346
lfingers 7.12502
lthumb -9.91788 32.8498
rfemur -7.39076 -11.6173 18.4619
rtibia 21.2843
rfoot -18.7791 -1.25677
rtoes 1.98785e-014
lfemur -28.876 21.8998 -24.8765
ltibia 31.3862
lfoot -8.09323 -28.1831
ltoes -1.59028e-015
1097
root -15.6381 16.3063 5.12335 -165.116 83.6754 -174.973
lowerback -11.6057 -2.5413 -1.52927
upperback -3.46554 -3.02481 -0.66063
thorax 2.92043 -1.44417 -0.243868
lowerneck 12.959 -9.00763 -12.6872
upperneck 10.9772 38.7463 7.96482
head 171.306 65.9724 -31.4541
rclavicle -5.24295e-014 -1.15295e-014
rhumerus -42.5608 -23.9247 -74.9819
rradius 17.8656
rwrist 23.4612
rhand -34.3149 1.23312
rfingers 7.12502
rthumb -7.48354 -28.6145
lclavicle -5.24295e-014 -1.15295e-014
lhumerus -33.8709 8.72481 85.9741
lradius 21.4555
lwrist -39.0049
lhand -36.7593 3.11212
lfingers 7.12502
lthumb -9.84243 32.8621
rfemur -7.43384 -10.8903 18.2981
rtibia 21.9233
rfoot -18.9308 -1.66594
rtoes -3.4191e-014
lfemur -28.316 21.5225 -24.6107
ltibia 31.4518
lfoot -8.29246 -27.3399
ltoes -1.47896e-013
1098
root -15.605 16.2963 5.1059 -166.233 84.3386 -175.94
lowerback -11.5194 -2.41839 -1.77609
upperback -3.51393 -2.83156 -0.753727
thorax 2.8283 -1.34752 -0.170161
lowerneck 13.0265 -8.9931 -12.6495
upperneck 11.0231 38.7955 7.98581
head 171.198 65.8994 -31.5025
rclavicle 4.58944e-014 2.38542e-014
rhumerus -42.6036 -23.3841 -75.4407
rradius 18.1267
rwrist 22.8073
rhand -34.2385 1.29881
rfingers 7.12502
rthumb -7.40976 -28.5514
lclavicle 4.58944e-014 2.38542e-014
lhumerus -34.1753 8.82386 85.7405
lradius 21.4763
lwrist -38.89
lhand -36.6572 3.28429
lfingers 7.12502
lthumb -9.74396 33.0389
rfemur -7.61148 -10.2044 18.0026
rtibia 22.674
rfoot -19.1558 -1.94715
rtoes 3.89618e-014
lfemur -27.7461 20.8608 -24.4372
ltibia 31.4691
lfoot -8.53782 -26.0432
ltoes 9.85972e-014
1099
root -15.5711 16.2939 5.08577 -168.103 85.0193 -177.705
lowerback -11.5921 -2.30082 -2.02897
upperback -3.47967 -2.63997 -0.871436
thorax 2.90714 -1.25318 -0.127615
lowerneck 13.0102 -8.88935 -12.6814
upperneck 11.0169 38.8551 8.01982
head 171.556 65.854 -31.2413
rclavicle -1.40392e-014 -1.15295e-014
rhumerus -42.3814 -22.7404 -76.0909
rradius 18.3287
rwrist 22.1762
rhand -34.0535 1.15832
rfingers 7.12502
rthumb -7.2312 -28.6981
lclavicle -1.40392e-014 -1.15295e-014
lhumerus -34.3416 9.09353 85.3961
lradius 21.4645
lwrist -38.8069
lhand -36.7305 3.19521
lfingers 7.12502
lthumb -9.8146 32.9465
rfemur -7.9609 -9.66572 17.6634
rtibia 23.61
rfoot -19.3455 -2.11301
rtoes 3.73715e-014
lfemur -27.2902 20.5667 -24.4714
ltibia 31.4185
lfoot -8.67968 -25.1639
ltoes 1.59028e-015
1100
root -15.5379 16.2893 5.06923 -170.735 85.64 -180.262
lowerback -11.6261 -2.23276 -2.35056
upperback -3.50033 -2.50688 -0.956868
thorax 2.912 -1.18656 -0.0181325
lowerneck 13.0384 -8.86089 -12.6956
upperneck 10.973 38.6953 7.92082
head 171.216 66.0931 -31.424
rclavicle -2.65626e-014 -1.55052e-014
rhumerus -42.2474 -22.4177 -76.4651
rradius 18.4206
rwrist 22.0808
rhand -33.8413 1.14375
rfingers 7.12502
rthumb -7.02634 -28.7196
lclavicle -2.65626e-014 -1.55052e-014
lhumerus -34.5432 9.29824 85.0801
lradius 21.4173
lwrist -38.7685
lhand -36.7764 3.22516
lfingers 7.12502
lthumb -9.85888 32.9743
rfemur -8.39976 -8.99215 17.3056
rtibia 24.7074
rfoot -19.6049 -2.353
rtoes 4.77083e-015
lfemur -26.8485 20.2712 -24.5174
ltibia 31.3065
lfoot -8.71094 -24.3261
ltoes 2.06736e-014
1101
root -15.5109 16.2893 5.05256 -175.046 86.3239 -184.502
lowerback -11.6544 -2.11833 -2.64148
upperback -3.45099 -2.31413 -1.11274
thorax 2.98012 -1.09231 0.00828472
lowerneck 12.8729 -8.82829 -12.6661
upperneck 10.9101 38.6703 7.88769
head 171.17 66.2107 -31.4773
rclavicle -1.4884e-014 -1.59028e-014
rhumerus -41.8993 -21.9787 -77.0982
rradius 18.5123
rwrist 21.6683
rhand -33.8869 1.46371
rfingers 7.12502
rthumb -7.07038 -28.3982
lclavicle -1.4884e-014 -1.59028e-014
lhumerus -34.6935 9.47424 84.7381
lradius 21.5248
lwrist -38.7268
lhand -36.8321 3.23531
lfingers 7.12502
lthumb -9.91267 32.9819
rfemur -8.9683 -8.32667 16.885
rtibia 25.9817
rfoot -19.6699 -2.53176
rtoes -1.59028e-015
lfemur -26.4465 20.2961 -24.7005
ltibia 31.1302
lfoot -8.71612 -23.7758
ltoes -9.70069e-014
1102
root -15.4799 16.2886 5.03763 -180.652 86.9733 -190.052
lowerback -11.7288 -2.03011 -2.93012
upperback -3.42218 -2.15431 -1.23793
thorax 3.05299 -1.01396 0.0597637
lowerneck 12.7626 -8.72114 -12.7053
upperneck 10.8638 38.6959 7.88033
head 171.412 66.2646 -31.3101
rclavicle -2.01269e-015 -7.95139e-016
rhumerus -41.6056 -21.2968 -77.8102
rradius 18.7052
rwrist 21.2437
rhand -33.6931 1.34548
rfingers 7.12502
rthumb -6.88333 -28.5226
lclavicle -2.01269e-015 -7.95139e-016
lhumerus -34.8217 9.75453 84.346
lradius 21.532
lwrist -38.7055
lhand -36.8003 3.49076
lfingers 7.12502
lthumb -9.88202 33.2388
rfemur -9.60198 -7.68512 16.4792
rtibia 27.3909
rfoot -19.6686 -2.66142
rtoes 3.81667e-014
lfemur -26.0973 20.8517 -24.9838
ltibia 30.928
lfoot -8.71522 -23.7592
ltoes 3.18055e-014
1103
root -15.4527 16.2881 5.02261 -191.242 87.5538 -200.644
lowerback -11.7794 -1.94912 -3.26739
upperback -3.45817 -1.9964 -1.38684
thorax 3.04516 -0.934219 0.115977
lowerneck 12.6861 -8.66958 -12.7347
upperneck 10.8451 38.7077 7.82944
head 171.19 66.3502 -31.46
rclavicle 3.60297e-015 -7.95139e-015
rhumerus -41.3941 -20.7746 -78.3904
rradius 18.8642
rwrist 20.9809
rhand -33.716 1.21794
rfingers 7.12502
rthumb -6.90547 -28.6494
lclavicle 3.60297e-015 -7.95139e-015
lhumerus -35.0871 9.85122 84.0902
lradius 21.6184
lwrist -38.1556
lhand -36.9706 3.57176
lfingers 7.12502
lthumb -10.0463 33.312
rfemur -10.4007 -7.14691 16.0069
rtibia 28.8898
rfoot -19.6721 -2.78859
rtoes 9.54166e-015
lfemur -25.9071 21.6942 -25.4664
ltibia 30.7249
lfoot -8.60426 -24.0864
ltoes 9.54166e-015
1104
root -15.426 16.2844 5.00579 -204.925 88.0835 -214.264
lowerback -11.7653 -1.87387 -3.45956
upperback -3.45351 -1.8695 -1.5033
thorax 3.04087 -0.87137 0.121283
lowerneck 12.5425 -8.5518 -12.8052
upperneck 10.7912 38.7202 7.78045
head 171.181 66.5672 -31.488
rclavicle -4.96962e-015 -6.36111e-015
rhumerus -41.0733 -20.1661 -79.0205
rradius 18.9546
rwrist 20.6995
rhand -33.6626 1.45545
rfingers 7.12502
rthumb -6.85382 -28.4136
lclavicle -4.96962e-015 -6.36111e-015
lhumerus -35.391 10.2114 83.6329
lradius 21.7795
lwrist -38.1059
lhand -37.0335 3.56617
lfingers 7.12502
lthumb -10.107 33.3034
rfemur -11.1702 -6.6078 15.6405
rtibia 30.4364
rfoot -19.5896 -2.90571
rtoes -5.08889e-014
lfemur -25.6426 22.6365 -25.8175
ltibia 30.5404
lfoot -8.57276 -24.4294
ltoes -7.63333e-014
1105
root -15.4 16.2831 4.99056 -226.15 88.3861 -235.463
lowerback -11.8014 -1.78116 -3.67451
upperback -3.46029 -1.71202 -1.64296
thorax 3.05082 -0.792741 0.1184
lowerneck 12.4069 -8.46576 -12.8587
upperneck 10.7946 38.8707 7.78125
head 171.184 66.5238 -31.5165
rclavicle 9.39258e-015 1.74931e-014
rhumerus -40.8382 -19.7337 -79.5342
rradius 19.0709
rwrist 20.682
rhand -33.6727 1.48778
rfingers 7.12502
rthumb -6.8636 -28.381
lclavicle 9.39258e-015 1.74931e-014
lhumerus -35.6047 10.54 83.2511
lradius 21.7749
lwrist -37.9116
lhand -37.1716 3.76142
lfingers 7.12502
lthumb -10.2402 33.4922
rfemur -11.989 -6.14724 15.2663
rtibia 32.0136
rfoot -19.3712 -3.02654
rtoes 7.79236e-014
lfemur -25.4743 23.6238 -26.2362
ltibia 30.3588
lfoot -8.41847 -24.9021
ltoes 8.42847e-014
1106
root -15.3727 16.2808 4.97589 -248.22 88.4974 -257.497
lowerback -11.9013 -1.73082 -3.76159
upperback -3.41125 -1.6242 -1.74317
thorax 3.15341 -0.751166 0.0721542
lowerneck 12.2061 -8.34918 -12.9335
upperneck 10.7394 38.9283 7.73612
head 171.168 66.7068 -31.5692
rclavicle -8.29926e-015 -3.18055e-015
rhumerus -40.3932 -19.3925 -80.0663
rradius 19.0457
rwrist 20.7716
rhand -33.6162 1.5011
rfingers 7.12502
rthumb -6.80906 -28.3694
lclavicle -8.29926e-015 -3.18055e-015
lhumerus -35.8193 10.6599 82.8947
lradius 21.8969
lwrist -37.41
lhand -37.207 3.82227
lfingers 7.12502
lthumb -10.2744 33.5513
rfemur -12.7829 -5.75944 15.0108
rtibia 33.5865
rfoot -19.1754 -3.03729
rtoes 9.54166e-015
lfemur -25.2462 24.5748 -26.4938
ltibia 30.1571
lfoot -8.33708 -25.3645
ltoes 1.11319e-014
1107
root -15.3505 16.2866 4.95999 -268.326 88.3608 -277.545
lowerback -11.7924 -1.67569 -3.83683
upperback -3.44441 -1.54245 -1.87598
thorax 3.05508 -0.708609 -0.00858283
lowerneck 12.064 -8.26186 -12.9667
upperneck 10.7545 39.1053 7.74919
head 171.127 66.6793 -31.6402
rclavicle -1.28713e-014 -1.98785e-014
rhumerus -40.1404 -19.3417 -80.3737
rradius 18.988
rwrist 21.2068
rhand -33.6021 1.5658
rfingers 7.12502
rthumb -6.79543 -28.3051
lclavicle -1.28713e-014 -1.98785e-014
lhumerus -36.2109 11.2591 82.2639
lradius 22.0351
lwrist -37.5347
lhand -37.0979 3.92292
lfingers 7.12502
lthumb -10.1691 33.6571
rfemur -13.5845 -5.72136 14.7552
rtibia 35.1309
rfoot -18.9369 -2.87408
rtoes 1.90833e-014
lfemur -25.0338 25.4103 -26.7721
ltibia 29.9428
lfoot -8.21384 -25.771
ltoes 2.38542e-014
